<?xml version="1.0" encoding="utf-8"?>
<!-- Generator: Adobe Illustrator 19.2.0, SVG Export Plug-In . SVG Version: 6.00 Build 0)  -->
<svg version="1.1" id="Layer_1" xmlns="http://www.w3.org/2000/svg" xmlns:xlink="http://www.w3.org/1999/xlink" x="0px" y="0px"
	 viewBox="0 0 1024 768" style="enable-background:new 0 0 1024 768;" xml:space="preserve">
<style type="text/css">
	.st0{fill:#EDEDED;}
	.st1{fill:none;stroke:#229FDD;stroke-width:4;stroke-miterlimit:10;}
	.st2{fill:#EDEDED;stroke:#000000;stroke-width:5;stroke-miterlimit:10;}
	.st3{fill:none;stroke:#000000;stroke-width:3;stroke-miterlimit:10;}
	.st4{fill:#229FDD;}
	.st5{font-family:'Oswald-Regular';}
	.st6{font-size:19px;}
	.st7{fill:none;}
	.st8{fill:none;stroke:#000000;stroke-width:3;stroke-miterlimit:8;stroke-dasharray:7,7;}
	.st9{fill:none;stroke:#229FDD;stroke-width:3;stroke-miterlimit:8;stroke-dasharray:7,7;}
	.st10{font-size:23.53px;}
	.st11{font-size:25px;}
	.st12{font-size:60px;}
</style>
<title>Explanation Graphic</title>
<rect class="st0" width="1024" height="768"/>
<line class="st1" x1="189.3" y1="401" x2="220.3" y2="401"/>
<line class="st1" x1="254.3" y1="401" x2="286.3" y2="401"/>
<circle class="st2" cx="175" cy="400.2" r="17.1"/>
<circle class="st2" cx="238.1" cy="400.2" r="17.1"/>
<circle class="st2" cx="304.1" cy="400.2" r="17.1"/>
<path class="st2" d="M705.2,383.1c9.5,0.2,16.9,8.1,16.7,17.5c-0.2,9.1-7.6,16.5-16.7,16.7"/>
<circle class="st2" cx="837.3" cy="400.2" r="17.1"/>
<line class="st3" x1="722.3" y1="400.5" x2="754.3" y2="400.5"/>
<line class="st3" x1="787.3" y1="400.5" x2="820.3" y2="400.5"/>
<line class="st3" x1="854.3" y1="400.5" x2="886.3" y2="400.5"/>
<circle class="st2" cx="513.4" cy="400.2" r="17.1"/>
<circle class="st2" cx="579.4" cy="400.2" r="17.1"/>
<line class="st3" x1="464.3" y1="400.5" x2="496.3" y2="400.5"/>
<line class="st3" x1="530.3" y1="400.5" x2="562.3" y2="400.5"/>
<path d="M503.5,458.7l-9.7-9.7l6.9-4c0.8-0.4,1.1-1.4,0.6-2.2c-0.2-0.3-0.5-0.6-0.8-0.7l-30.9-12.3c-0.8-0.3-1.8,0.1-2.1,0.9
	c-0.2,0.4-0.2,0.8,0,1.2l12.3,30.9c0.3,0.8,1.3,1.2,2.1,0.9c0.3-0.1,0.6-0.4,0.8-0.7l4-6.9l9.7,9.7c0.6,0.6,1.7,0.6,2.3,0
	c0,0,0,0,0,0l4.7-4.7C504.1,460.4,504.1,459.3,503.5,458.7z M497.6,462.3l-10.1-10.1c-0.3-0.3-0.7-0.5-1.1-0.5h-0.2
	c-0.5,0.1-0.9,0.4-1.2,0.8l-3.4,5.9l-9.7-24.2l24.2,9.7l-5.8,3.4c-0.8,0.4-1.1,1.4-0.6,2.2c0.1,0.1,0.2,0.2,0.3,0.3l10.1,10.1
	L497.6,462.3z"/>
<circle class="st2" cx="771.3" cy="400.2" r="18.3"/>
<path d="M462.3,422.3c-0.6-0.6-1.7-0.6-2.3,0s-0.6,1.7,0,2.3l3.6,3.6c0.6,0.6,1.7,0.6,2.3,0s0.6-1.7,0-2.3l0,0L462.3,422.3z"/>
<path d="M463.6,433.6c0-0.9-0.7-1.6-1.6-1.6l0,0h-5.1c-0.9,0-1.6,0.7-1.6,1.6s0.7,1.6,1.6,1.6l0,0h5.1
	C462.8,435.2,463.6,434.5,463.6,433.6L463.6,433.6z"/>
<circle class="st4" cx="447.3" cy="400.2" r="18.4"/>
<path d="M462.9,438.6l-3.6,3.6c-0.6,0.6-0.6,1.7,0,2.3s1.7,0.6,2.3,0l3.6-3.6c0.6-0.6,0.6-1.7,0-2.3
	C464.6,438,463.5,438,462.9,438.6z"/>
<path d="M471.3,425.9c0.9,0,1.6-0.7,1.6-1.6l0,0v-5.1c0-0.9-0.7-1.6-1.6-1.6s-1.6,0.7-1.6,1.6v5.1
	C469.7,425.1,470.4,425.9,471.3,425.9L471.3,425.9z"/>
<path d="M477.5,428c0.4,0,0.8-0.2,1.1-0.5l3.6-3.6c0.6-0.6,0.6-1.7,0-2.3s-1.7-0.6-2.3,0l-3.6,3.6c-0.7,0.6-0.7,1.7-0.1,2.3
	C476.6,427.8,477,428,477.5,428z"/>
<text transform="matrix(1 0 0 1 433.66 511.14)" class="st4 st5 st6">EXPLANATION</text>
<line class="st7" x1="447.3" y1="425" x2="447.3" y2="483"/>
<line class="st8" x1="447.8" y1="425" x2="447.8" y2="481"/>
<path d="M439.5,469.8c0.4-0.2,0.9-0.1,1.1,0.2l6.8,10.6l6.8-10.7c0.3-0.4,0.8-0.4,1.2-0.1c0.3,0.2,0.4,0.7,0.2,1l-7.5,11.7
	c-0.3,0.4-0.8,0.5-1.1,0.2c-0.1-0.1-0.2-0.1-0.2-0.2l-7.5-11.7C439,470.5,439.1,470,439.5,469.8z"/>
<path class="st2" d="M903.6,419c-9.5,0.2-17.3-7.3-17.5-16.7c-0.2-9.5,7.3-17.3,16.7-17.5c0.3,0,0.6,0,0.8,0"/>
<line class="st7" x1="705.3" y1="448" x2="903.3" y2="448"/>
<line class="st9" x1="709.3" y1="448.5" x2="900.3" y2="448.5"/>
<path class="st4" d="M729.3,462.5c0.4-0.7,0.2-1.6-0.5-2.1l-19.4-12.3l19.4-12.3c0.7-0.5,0.9-1.4,0.4-2.1c-0.4-0.7-1.3-0.9-2-0.4
	l-21.3,13.6c-0.7,0.4-0.9,1.4-0.5,2.1c0.1,0.2,0.3,0.3,0.5,0.5l21.4,13.6C728,463.3,728.8,463.1,729.3,462.5z"/>
<path class="st4" d="M879.3,462.5c-0.4-0.7-0.2-1.6,0.5-2.1l19.4-12.3l-19.4-12.3c-0.7-0.5-0.9-1.4-0.4-2.1c0.4-0.7,1.3-0.9,2-0.4
	l21.3,13.6c0.7,0.4,0.9,1.4,0.5,2.1c-0.1,0.2-0.3,0.3-0.5,0.5l-21.3,13.6C880.7,463.3,879.7,463.1,879.3,462.5z"/>
<text transform="matrix(1 0 0 1 198.35 311.38)" class="st5 st10">OBSERVE </text>
<text transform="matrix(1 0 0 1 179.96 339.61)" class="st5 st10">OUR JOURNEY</text>
<text transform="matrix(1 0 0 1 489.48 311.38)" class="st5 st10">CLICK </text>
<text transform="matrix(1 0 0 1 437.79 339.61)" class="st5 st10">TO FIND OUT MORE</text>
<text transform="matrix(1 0 0 1 770.77 311.38)" class="st5 st10">SCROLL </text>
<text transform="matrix(1 0 0 1 754.71 339.61)" class="st5 st10">TO EXPLORE</text>
<text transform="matrix(1 0 0 1 452.31 121.42)" class="st5 st11">THE JOURNEY TO</text>
<text transform="matrix(1 0 0 1 419.26 188.53)" class="st4 st5 st12">OurSpace</text>
<text transform="matrix(1 0 0 1 383.7855 605.5664)" class="st5 st10">CLICK ANYWHERE TO START </text>
</svg>
